
<svg width="200px" height="40px" viewBox="130 14 200 40" version="1.1" xmlns="http://www.w3.org/2000/svg" xmlns:xlink="http://www.w3.org/1999/xlink">
    <!-- Generator: Sketch 41.2 (35397) - http://www.bohemiancoding.com/sketch -->
    <desc>Created with Sketch.</desc>
    <defs>
        <linearGradient x1="30.0217692%" y1="13.7732812%" x2="156.995844%" y2="227.983444%" id="linearGradient-1">
            <stop stop-color="#C22C2D" offset="0%"></stop>
            <stop stop-color="#E73437" offset="44%"></stop>
            <stop stop-color="#E83C35" offset="52%"></stop>
            <stop stop-color="#EA5330" offset="65%"></stop>
            <stop stop-color="#EF7727" offset="82%"></stop>
            <stop stop-color="#F4A81C" offset="100%"></stop>
        </linearGradient>
        <linearGradient x1="6533.58707%" y1="13744%" x2="11286.6372%" y2="4427%" id="linearGradient-2">
            <stop stop-color="#C22C2D" offset="0%"></stop>
            <stop stop-color="#E73437" offset="44%"></stop>
            <stop stop-color="#E83C35" offset="52%"></stop>
            <stop stop-color="#EA5330" offset="65%"></stop>
            <stop stop-color="#EF7727" offset="82%"></stop>
            <stop stop-color="#F4A81C" offset="100%"></stop>
        </linearGradient>
        <linearGradient x1="1002.65866%" y1="8456%" x2="6688.48003%" y2="-860%" id="linearGradient-3">
            <stop stop-color="#C22C2D" offset="0%"></stop>
            <stop stop-color="#E73437" offset="44%"></stop>
            <stop stop-color="#E83C35" offset="52%"></stop>
            <stop stop-color="#EA5330" offset="65%"></stop>
            <stop stop-color="#EF7727" offset="82%"></stop>
            <stop stop-color="#F4A81C" offset="100%"></stop>
        </linearGradient>
        <linearGradient x1="8154.99825%" y1="14013%" x2="13842.5919%" y2="4697%" id="linearGradient-4">
            <stop stop-color="#C22C2D" offset="0%"></stop>
            <stop stop-color="#E73437" offset="44%"></stop>
            <stop stop-color="#E83C35" offset="52%"></stop>
            <stop stop-color="#EA5330" offset="65%"></stop>
            <stop stop-color="#EF7727" offset="82%"></stop>
            <stop stop-color="#F4A81C" offset="100%"></stop>
        </linearGradient>
        <linearGradient x1="1866.46464%" y1="9260%" x2="7064.69708%" y2="-56%" id="linearGradient-5">
            <stop stop-color="#C22C2D" offset="0%"></stop>
            <stop stop-color="#E73437" offset="44%"></stop>
            <stop stop-color="#E83C35" offset="52%"></stop>
            <stop stop-color="#EA5330" offset="65%"></stop>
            <stop stop-color="#EF7727" offset="82%"></stop>
            <stop stop-color="#F4A81C" offset="100%"></stop>
        </linearGradient>
        <linearGradient x1="3933%" y1="8049%" x2="6656%" y2="8049%" id="linearGradient-6">
            <stop stop-color="#C22C2D" offset="0%"></stop>
            <stop stop-color="#E73437" offset="44%"></stop>
            <stop stop-color="#E83C35" offset="52%"></stop>
            <stop stop-color="#EA5330" offset="65%"></stop>
            <stop stop-color="#EF7727" offset="82%"></stop>
            <stop stop-color="#F4A81C" offset="100%"></stop>
        </linearGradient>
        <linearGradient x1="6502.93892%" y1="13210%" x2="11693.1177%" y2="3893%" id="linearGradient-7">
            <stop stop-color="#C22C2D" offset="0%"></stop>
            <stop stop-color="#E73437" offset="44%"></stop>
            <stop stop-color="#E83C35" offset="52%"></stop>
            <stop stop-color="#EA5330" offset="65%"></stop>
            <stop stop-color="#EF7727" offset="82%"></stop>
            <stop stop-color="#F4A81C" offset="100%"></stop>
        </linearGradient>
        <linearGradient x1="4491.986%" y1="11169%" x2="10176.0271%" y2="1852%" id="linearGradient-8">
            <stop stop-color="#C22C2D" offset="0%"></stop>
            <stop stop-color="#E73437" offset="44%"></stop>
            <stop stop-color="#E83C35" offset="52%"></stop>
            <stop stop-color="#EA5330" offset="65%"></stop>
            <stop stop-color="#EF7727" offset="82%"></stop>
            <stop stop-color="#F4A81C" offset="100%"></stop>
        </linearGradient>
        <linearGradient x1="4664.07808%" y1="11301%" x2="10351.6717%" y2="1984%" id="linearGradient-9">
            <stop stop-color="#C22C2D" offset="0%"></stop>
            <stop stop-color="#E73437" offset="44%"></stop>
            <stop stop-color="#E83C35" offset="52%"></stop>
            <stop stop-color="#EA5330" offset="65%"></stop>
            <stop stop-color="#EF7727" offset="82%"></stop>
            <stop stop-color="#F4A81C" offset="100%"></stop>
        </linearGradient>
        <linearGradient x1="4873.53207%" y1="11830%" x2="10055.619%" y2="2514%" id="linearGradient-10">
            <stop stop-color="#C22C2D" offset="0%"></stop>
            <stop stop-color="#E73437" offset="44%"></stop>
            <stop stop-color="#E83C35" offset="52%"></stop>
            <stop stop-color="#EA5330" offset="65%"></stop>
            <stop stop-color="#EF7727" offset="82%"></stop>
            <stop stop-color="#F4A81C" offset="100%"></stop>
        </linearGradient>
        <linearGradient x1="3484.7723%" y1="10640%" x2="8674.95108%" y2="1324%" id="linearGradient-11">
            <stop stop-color="#C22C2D" offset="0%"></stop>
            <stop stop-color="#E73437" offset="44%"></stop>
            <stop stop-color="#E83C35" offset="52%"></stop>
            <stop stop-color="#EA5330" offset="65%"></stop>
            <stop stop-color="#EF7727" offset="82%"></stop>
            <stop stop-color="#F4A81C" offset="100%"></stop>
        </linearGradient>
        <linearGradient x1="1613.92935%" y1="10447%" x2="4144.61552%" y2="1131%" id="linearGradient-12">
            <stop stop-color="#C22C2D" offset="0%"></stop>
            <stop stop-color="#E73437" offset="44%"></stop>
            <stop stop-color="#E83C35" offset="52%"></stop>
            <stop stop-color="#EA5330" offset="65%"></stop>
            <stop stop-color="#EF7727" offset="82%"></stop>
            <stop stop-color="#F4A81C" offset="100%"></stop>
        </linearGradient>
        <linearGradient x1="2511.58178%" y1="12023%" x2="5036.92695%" y2="2707%" id="linearGradient-13">
            <stop stop-color="#C22C2D" offset="0%"></stop>
            <stop stop-color="#E73437" offset="44%"></stop>
            <stop stop-color="#E83C35" offset="52%"></stop>
            <stop stop-color="#EA5330" offset="65%"></stop>
            <stop stop-color="#EF7727" offset="82%"></stop>
            <stop stop-color="#F4A81C" offset="100%"></stop>
        </linearGradient>
    </defs>
    <g id="reactotron-logo" opacity="0.900000036" stroke="none" stroke-width="1" fill="none" fill-rule="evenodd" transform="translate(130.000000, 14.000000)">
        <g id="Reactotron-Logo-Horizontal-Color">
            <g >
                <path d="M70.8347826,26.3768116 L70.8347826,20.3362319 C70.8347826,17.684058 72.6898551,16.2782609 75,16.2782609 L78.8231884,16.2782609 C81.142029,16.2782609 82.9884058,17.6753623 82.9884058,20.3362319 L82.9884058,23.6173913 C82.9884058,24.1014493 82.9304348,24.5014493 82.2463768,24.5014493 L74.4202899,24.5014493 C73.9840745,24.5085748 73.5706161,24.3072292 73.3072464,23.9594203 L73.3072464,26.4985507 C73.3033418,26.9463762 73.4795148,27.3769953 73.7961873,27.6936678 C74.1128597,28.0103403 74.5434788,28.1865132 74.9913043,28.1826087 L82.0666667,28.1826087 C82.2389,28.1841817 82.3781371,28.3234188 82.3797101,28.4956522 L82.3797101,30.5507246 L74.9884058,30.5507246 C73.883272,30.5507378 72.8236951,30.1103411 72.0441538,29.3269918 C71.2646125,28.5436425 70.8293842,27.4819322 70.8347826,26.3768116 L70.8347826,26.3768116 Z M75,18.6173913 C74.057971,18.6173913 73.315942,19.1594203 73.315942,20.3014493 L73.315942,21.8405797 C73.3140496,22.0053626 73.4413556,22.1428532 73.6057971,22.1536232 L80.2521739,22.1536232 C80.4244073,22.1520502 80.5636444,22.0128131 80.5652174,21.8405797 L80.5652174,20.3101449 C80.5652174,19.1681159 80.0231884,18.626087 78.9101449,18.626087 L75,18.626087 L75,18.6173913 Z" id="Shape" fill="#FFFFFF"></path>
                <path d="M99.3913043,20.2898551 L99.3913043,29.6492754 C99.3944517,29.8923808 99.2992674,30.1264501 99.1273515,30.298366 C98.9554356,30.4702819 98.7213663,30.5654662 98.4782609,30.5623188 L91.8115942,30.5623188 C90.7009257,30.5677772 89.6343364,30.1281838 88.8500557,29.3417245 C88.065775,28.5552653 87.6291419,27.4874607 87.6376812,26.3768116 L87.6376812,25.5072464 C87.6345906,24.4016175 88.0724323,23.3403816 88.854233,22.5585808 C89.6360337,21.7767801 90.6972697,21.3389385 91.8028986,21.342029 L96.6231884,21.342029 C96.7954218,21.340456 96.9346589,21.2012189 96.9362319,21.0289855 L96.9362319,20.3101449 C96.9587299,19.8518499 96.7844541,19.4057579 96.4572439,19.0840842 C96.1300337,18.7624105 95.6810328,18.595772 95.2231884,18.626087 L89.5478261,18.626087 C89.3755927,18.624514 89.2363556,18.4852768 89.2347826,18.3130435 L89.2347826,16.284058 L95.226087,16.284058 C97.5362319,16.2869565 99.3913043,17.6811594 99.3913043,20.2898551 Z M91.8028986,28.115942 L96.6521739,28.115942 C96.7332399,28.1162019 96.8107102,28.0825016 96.8657873,28.0230183 C96.9208645,27.963535 96.9485147,27.8837051 96.942029,27.8028986 L96.942029,23.2753623 C96.7809769,23.5324032 96.503117,23.6930409 96.2,23.7043478 L91.8028986,23.7043478 C91.355073,23.7004433 90.9244539,23.8766162 90.6077815,24.1932887 C90.291109,24.5099612 90.114936,24.9405803 90.1188406,25.3884058 L90.1188406,26.4434783 C90.1180498,26.8892992 90.2955967,27.3169188 90.6119272,27.6310715 C90.9282578,27.9452242 91.3570937,28.1198127 91.8028986,28.115942 L91.8028986,28.115942 Z" id="Shape" fill="#FFFFFF"></path>
                <path d="M106.750725,20.3652174 L106.750725,26.5014493 C106.74682,26.9492748 106.922993,27.3798939 107.239666,27.6965664 C107.556338,28.0132389 107.986957,28.1894118 108.434783,28.1855072 L113.484058,28.1855072 C113.656291,28.1870803 113.795528,28.3263174 113.797101,28.4985507 L113.797101,30.5536232 L108.434783,30.5536232 C107.32856,30.5520868 106.268257,30.1111677 105.487127,29.3278633 C104.705997,28.544559 104.268027,27.4830337 104.269565,26.3768116 L104.269565,20.4811594 C104.271161,18.1809654 106.13459,16.3162399 108.434783,16.3130435 L113.797101,16.3130435 L113.797101,18.3681159 C113.797361,18.4491819 113.763661,18.5266522 113.704178,18.5817293 C113.644694,18.6368065 113.564864,18.6644567 113.484058,18.657971 L108.434783,18.657971 C107.984823,18.6602659 107.554293,18.8416156 107.238302,19.1619572 C106.922312,19.4822987 106.746866,19.9152686 106.750725,20.3652174 Z" id="Shape" fill="#FFFFFF"></path>
                <path d="M125.797101,28.4985507 L125.797101,30.5536232 L122.915942,30.5536232 C120.615752,30.5456331 118.756209,28.6770133 118.75942,26.3768116 L118.75942,9.37971014 L120.927536,9.37971014 C121.09977,9.38128315 121.239007,9.52052025 121.24058,9.69275362 L121.24058,16.3130435 L125.092754,16.3130435 L125.092754,18.3681159 C125.093013,18.4491819 125.059313,18.5266522 124.99983,18.5817293 C124.940347,18.6368065 124.860517,18.6644567 124.77971,18.657971 L121.243478,18.657971 L121.243478,26.5014493 C121.239574,26.9492748 121.415747,27.3798939 121.732419,27.6965664 C122.049092,28.0132389 122.479711,28.1894118 122.927536,28.1855072 L125.507246,28.1855072 C125.670367,28.1990193 125.796158,28.3348742 125.797101,28.4985507 Z" id="Shape" fill="#FFFFFF"></path>
                <path d="M134.202899,30.7507246 C133.095766,30.7561372 132.032288,30.319321 131.248601,29.5372672 C130.464915,28.7552135 130.025882,27.692649 130.028986,26.5855072 L130.028986,20.2521739 C130.032185,17.9497183 131.900441,16.0853543 134.202899,16.0869565 L137.971014,16.0869565 C140.276136,16.0869015 142.149287,17.9471072 142.165217,20.2521739 L142.165217,26.5855072 C142.162149,27.6942758 141.71835,28.7563266 140.931615,29.5376241 C140.144881,30.3189217 139.079778,30.7553456 137.971014,30.7507246 L134.202899,30.7507246 L134.202899,30.7507246 Z M132.518841,20.1362319 L132.518841,26.7014493 C132.515756,27.1508978 132.691544,27.5831215 133.007451,27.9028344 C133.323358,28.2225474 133.753445,28.4034988 134.202899,28.4057971 L137.971014,28.4057971 C138.916441,28.4042014 139.682462,27.6381797 139.684058,26.6927536 L139.684058,20.1391304 C139.669789,19.2037171 138.906535,18.453378 137.971014,18.4550725 L134.202899,18.4550725 C133.754988,18.4535326 133.324853,18.6301871 133.007316,18.9460928 C132.689779,19.2619986 132.510912,19.691218 132.510145,20.1391304 L132.518841,20.1362319 Z" id="Shape" fill="#FFFFFF"></path>
                <path d="M154.391304,28.4985507 L154.391304,30.5536232 L151.510145,30.5536232 C150.403923,30.5520868 149.343619,30.1111677 148.562489,29.3278633 C147.781359,28.544559 147.343389,27.4830337 147.344928,26.3768116 L147.344928,9.37971014 L149.513043,9.37971014 C149.685277,9.38128315 149.824514,9.52052025 149.826087,9.69275362 L149.826087,16.3130435 L153.678261,16.3130435 L153.678261,18.3681159 C153.678521,18.4491819 153.64482,18.5266522 153.585337,18.5817293 C153.525854,18.6368065 153.446024,18.6644567 153.365217,18.657971 L149.826087,18.657971 L149.826087,26.5014493 C149.822182,26.9492748 149.998355,27.3798939 150.315028,27.6965664 C150.6317,28.0132389 151.062319,28.1894118 151.510145,28.1855072 L154.078261,28.1855072 C154.250494,28.1870803 154.389731,28.3263174 154.391304,28.4985507 L154.391304,28.4985507 Z" id="Shape" fill="#FFFFFF"></path>
                <path d="M174.591304,30.7507246 C173.487181,30.7514994 172.428184,30.3126356 171.648267,29.531087 C170.86835,28.7495383 170.4317,27.6896265 170.434783,26.5855072 L170.434783,20.2521739 C170.437959,17.9564967 172.295639,16.094931 174.591304,16.0869565 L178.35942,16.0869565 C180.663412,16.0884938 182.534803,17.948237 182.550725,20.2521739 L182.550725,26.5855072 C182.547656,27.6942758 182.103857,28.7563266 181.317122,29.5376241 C180.530388,30.3189217 179.465285,30.7553456 178.356522,30.7507246 L174.588406,30.7507246 L174.591304,30.7507246 Z M172.907246,20.1362319 L172.907246,26.7014493 C172.904162,27.1508978 173.07995,27.5831215 173.395857,27.9028344 C173.711764,28.2225474 174.141851,28.4034988 174.591304,28.4057971 L178.35942,28.4057971 C179.304846,28.4042014 180.070868,27.6381797 180.072464,26.6927536 L180.072464,20.1391304 C180.058195,19.2037171 179.294941,18.453378 178.35942,18.4550725 L174.591304,18.4550725 C173.661887,18.456668 172.908842,19.2097126 172.907246,20.1391304 L172.907246,20.1362319 Z" id="Shape" fill="#FFFFFF"></path>
                <path d="M199.837681,20.4521739 L199.837681,30.5507246 L197.681159,30.5507246 C197.508926,30.5491516 197.369689,30.4099145 197.368116,30.2376812 L197.368116,20.3101449 C197.36652,19.3807271 196.613476,18.6276825 195.684058,18.626087 L190.507246,18.626087 C190.335013,18.62766 190.195776,18.7668971 190.194203,18.9391304 L190.194203,30.2434783 C190.19263,30.4157116 190.053393,30.5549487 189.881159,30.5565217 L187.713043,30.5565217 L187.713043,18.1391304 C187.712273,17.6468987 187.90747,17.1746057 188.25553,16.8265449 C188.603591,16.4784841 189.075884,16.2832871 189.568116,16.284058 L195.672464,16.284058 C196.778597,16.2809636 197.840275,16.7192025 198.62216,17.5016315 C199.404045,18.2840606 199.841545,19.3460435 199.837681,20.4521739 L199.837681,20.4521739 Z" id="Shape" fill="#FFFFFF"></path>
                <path d="M163.092754,16.2869565 L161.286957,16.2869565 C159.869597,16.3419023 158.733207,17.4782923 158.678261,18.8956522 L158.678261,30.2318841 C158.679834,30.4041174 158.819071,30.5433545 158.991304,30.5449275 L161.15942,30.5449275 L161.15942,19.9391304 C161.208071,19.2185209 161.805292,18.6579936 162.527536,18.6550725 L166.086957,18.6550725 C166.25919,18.6534995 166.398427,18.5142624 166.4,18.342029 L166.4,16.2869565 L163.092754,16.2869565 Z" id="Shape" fill="#FFFFFF"></path>
                <path d="M63.4463768,16.2869565 L61.6405797,16.2869565 C60.2232198,16.3419023 59.0868298,17.4782923 59.0318841,18.8956522 L59.0318841,30.2318841 C59.0334571,30.4041174 59.1726942,30.5433545 59.3449275,30.5449275 L61.5130435,30.5449275 L61.5130435,19.9391304 C61.5616944,19.2185209 62.1589153,18.6579936 62.8811594,18.6550725 L66.4492754,18.6550725 C66.6215087,18.6534995 66.7607458,18.5142624 66.7623188,18.342029 L66.7623188,16.2869565 L63.4463768,16.2869565 Z" id="Shape" fill="#FFFFFF"></path>
                <path d="M11.4,13.7710145 C4.92753623,14.8405797 0,16.9043478 0,20.0695652 C0,23.2347826 4.92753623,25.3014493 11.4,26.3768116 C12.3685574,24.2187959 13.4522416,22.1143198 14.6463768,20.0724638 C13.4522998,18.0315697 12.3686157,15.9280616 11.4,13.7710145 L11.4,13.7710145 Z" id="Shape" fill="url(#linearGradient-1)"></path>
                <path d="M46.2144928,20.0695652 C46.2144928,16.9014493 41.2869565,14.8521739 34.8144928,13.7681159 C33.8449029,15.9252107 32.7602515,18.0287184 31.5652174,20.0695652 C32.7604264,22.1123039 33.8450798,24.2177506 34.8144928,26.3768116 C41.2869565,25.2985507 46.2144928,23.2376812 46.2144928,20.0695652 Z" id="Shape" fill="url(#linearGradient-2)"></path>
                <path d="M11.4,26.3768116 C9.73913043,30.1101449 8.79130435,33.3942029 8.79130435,35.6869565 C8.79130435,37.426087 9.31594203,38.657971 10.3478261,39.342029 C13.2289855,41.2492754 18.2463768,37.542029 23.1014493,31.9681159 C21.8028986,30.4811594 20.5188406,28.857971 19.2869565,27.1768116 C16.6447167,27.0628314 14.0113103,26.7957164 11.4,26.3768116 L11.4,26.3768116 Z" id="Shape" fill="url(#linearGradient-3)"></path>
                <path d="M34.8144928,13.7710145 C36.4753623,10.0376812 37.4231884,6.75362319 37.4231884,4.46376812 C37.4231884,2.72463768 36.8985507,1.49275362 35.8666667,0.808695652 C33.9565217,-0.455072464 31.0637681,0.602898551 27.2695652,3.95362319 C25.7936736,5.27546742 24.4034229,6.68992165 23.1072464,8.1884058 C24.3826087,9.63768116 25.6637681,11.2521739 26.9188406,12.9710145 C29.5639933,13.0845941 32.2003165,13.3517106 34.8144928,13.7710145 L34.8144928,13.7710145 Z" id="Shape" fill="url(#linearGradient-4)"></path>
                <path d="M17.1014493,24.0405797 C16.2318841,22.7130435 15.3971014,21.3826087 14.6347826,20.0724638 C13.4446512,22.1146049 12.3648412,24.2190733 11.4,26.3768116 C14.0132409,26.7958295 16.648583,27.0629446 19.2927536,27.1768116 C18.5507246,26.1449275 17.8144928,25.0956522 17.1014493,24.0405797 Z" id="Shape" fill="url(#linearGradient-5)"></path>
                <path d="M17.1014493,24.0405797 C16.2318841,22.7130435 15.3971014,21.3826087 14.6347826,20.0724638 C13.4446512,22.1146049 12.3648412,24.2190733 11.4,26.3768116 C14.0132409,26.7958295 16.648583,27.0629446 19.2927536,27.1768116 C18.5507246,26.1449275 17.8144928,25.0956522 17.1014493,24.0405797 Z" id="Shape" fill="url(#linearGradient-6)" style="mix-blend-mode: multiply;"></path>
                <path d="M29.1014493,16.1014493 C29.9710145,17.4289855 30.8057971,18.7594203 31.5681159,20.0695652 C32.76315,18.0287184 33.8478014,15.9252107 34.8173913,13.7681159 C32.2032159,13.3488056 29.5668923,13.0816891 26.9217391,12.9681159 C27.657971,13.9845411 28.3845411,15.0289855 29.1014493,16.1014493 Z" id="Shape" fill="url(#linearGradient-7)"></path>
                <path d="M29.1014493,16.1014493 C29.9710145,17.4289855 30.8057971,18.7594203 31.5681159,20.0695652 C32.76315,18.0287184 33.8478014,15.9252107 34.8173913,13.7681159 C32.2032159,13.3488056 29.5668923,13.0816891 26.9217391,12.9681159 C27.657971,13.9845411 28.3845411,15.0289855 29.1014493,16.1014493 Z" id="Shape" fill="#D10C0B"></path>
                <path d="M23.1072464,31.9623188 C27.9681159,37.5362319 32.9855072,41.2376812 35.8608696,39.3362319 C36.8927536,38.6521739 37.4173913,37.4231884 37.4173913,35.6811594 C37.4173913,33.3884058 36.4695652,30.1043478 34.8086957,26.3710145 C32.1954547,26.7900324 29.5601127,27.0571475 26.915942,27.1710145 C25.6898551,28.8550725 24.4057971,30.4753623 23.1072464,31.9623188 Z" id="Shape" fill="url(#linearGradient-8)"></path>
                <path d="M23.1072464,8.1884058 C21.8110082,6.68906998 20.4207649,5.27365522 18.9449275,3.95072464 C15.1507246,0.6 12.257971,-0.457971014 10.3478261,0.805797101 C9.31594203,1.48985507 8.79130435,2.71884058 8.79130435,4.46086957 L8.79130435,4.46086957 C8.79130435,6.75362319 9.73913043,10.0347826 11.4,13.7681159 C14.0141762,13.348812 16.6504995,13.0816956 19.2956522,12.9681159 C20.5507246,11.2521739 21.8318841,9.64637681 23.1072464,8.1884058 Z" id="Shape" fill="url(#linearGradient-9)"></path>
                <path d="M29.1014493,24.0405797 C28.4028986,25.0956522 27.6724638,26.1449275 26.9217391,27.1710145 C29.5658048,27.0591774 32.2011526,26.7939973 34.8144928,26.3768116 C33.8447994,24.2207072 32.7601495,22.1181698 31.5652174,20.0782609 C30.8028986,21.3855072 29.9797101,22.7130435 29.1014493,24.0405797 Z" id="Shape" fill="url(#linearGradient-10)"></path>
                <path d="M29.1014493,24.0405797 C28.4028986,25.0956522 27.6724638,26.1449275 26.9217391,27.1710145 C29.5658048,27.0591774 32.2011526,26.7939973 34.8144928,26.3768116 C33.8447994,24.2207072 32.7601495,22.1181698 31.5652174,20.0782609 C30.8028986,21.3855072 29.9797101,22.7130435 29.1014493,24.0405797 Z" id="Shape" fill="#DA2208"></path>
                <path d="M17.1014493,16.1014493 C17.8222222,15.0289855 18.5536232,13.9855072 19.2956522,12.9710145 C16.6504995,13.0845941 14.0141762,13.3517106 11.4,13.7710145 C12.3686558,15.9280422 13.4523388,18.0315483 14.6463768,20.0724638 C15.4115942,18.7594203 16.2318841,17.4289855 17.1014493,16.1014493 Z" id="Shape" fill="url(#linearGradient-11)"></path>
                <path d="M17.1014493,16.1014493 C17.8222222,15.0289855 18.5536232,13.9855072 19.2956522,12.9710145 C16.6504995,13.0845941 14.0141762,13.3517106 11.4,13.7710145 C12.3686558,15.9280422 13.4523388,18.0315483 14.6463768,20.0724638 C15.4115942,18.7594203 16.2318841,17.4289855 17.1014493,16.1014493 Z" id="Shape" fill="#AC090A"></path>
                <path d="M23.1072464,27.2463768 C21.8405797,27.2463768 20.5623188,27.2173913 19.2927536,27.1565217 C20.5246377,28.8405797 21.8086957,30.4608696 23.1072464,31.9478261 C24.4057971,30.4608696 25.6898551,28.8376812 26.9217391,27.1565217 C25.6521739,27.2289855 24.373913,27.2463768 23.1072464,27.2463768 Z" id="Shape" fill="url(#linearGradient-12)"></path>
                <path d="M23.1072464,27.2463768 C21.8405797,27.2463768 20.5623188,27.2173913 19.2927536,27.1565217 C20.5246377,28.8405797 21.8086957,30.4608696 23.1072464,31.9478261 C24.4057971,30.4608696 25.6898551,28.8376812 26.9217391,27.1565217 C25.6521739,27.2289855 24.373913,27.2463768 23.1072464,27.2463768 Z" id="Shape" fill="#D91C0A"></path>
                <path d="M23.1072464,12.8811594 C24.373913,12.8811594 25.6492754,12.9101449 26.9188406,12.9710145 C25.6637681,11.2521739 24.3797101,9.64637681 23.1072464,8.1884058 C21.8318841,9.63768116 20.5507246,11.2521739 19.2956522,12.9710145 C20.5652174,12.9130435 21.8405797,12.8811594 23.1072464,12.8811594 Z" id="Shape" fill="url(#linearGradient-13)"></path>
                <path d="M23.1072464,12.8811594 C24.373913,12.8811594 25.6492754,12.9101449 26.9188406,12.9710145 C25.6637681,11.2521739 24.3797101,9.64637681 23.1072464,8.1884058 C21.8318841,9.63768116 20.5507246,11.2521739 19.2956522,12.9710145 C20.5652174,12.9130435 21.8405797,12.8811594 23.1072464,12.8811594 Z" id="Shape" fill="#B20A0A"></path>
                <path d="M26.9188406,12.9710145 C25.6492754,12.9130435 24.373913,12.8811594 23.1072464,12.8811594 C21.8405797,12.8811594 20.5652174,12.9101449 19.2956522,12.9710145 C18.5574879,13.9855072 17.826087,15.0289855 17.1014493,16.1014493 C16.2318841,17.4289855 15.3971014,18.7594203 14.6347826,20.0695652 C15.4115942,21.3855072 16.2318841,22.7130435 17.1014493,24.0405797 C17.8,25.0956522 18.5304348,26.1449275 19.2811594,27.1710145 C20.5507246,27.2289855 21.8289855,27.2608696 23.0956522,27.2608696 C24.3623188,27.2608696 25.6405797,27.2318841 26.9101449,27.1710145 C27.6608696,26.1449275 28.3913043,25.0956522 29.0898551,24.0405797 C29.9594203,22.7130435 30.7942029,21.3826087 31.5565217,20.0724638 C30.7942029,18.7594203 29.9681159,17.4318841 29.0898551,16.1043478 C28.3845411,15.0299517 27.6608696,13.9855072 26.9188406,12.9710145 Z" id="Shape" fill="#FFFFFF"></path>
                <ellipse id="Oval" fill="#E73437" cx="23.1072464" cy="19.8347826" rx="3.59130435" ry="3.59130435"></ellipse>
            </g>
        </g>
    </g>
</svg>
